<!--?xml version="1.0" encoding="UTF-8" standalone="no"?-->

<svg version="1.1" xmlns="http://www.w3.org/2000/svg" xmlns:xlink="http://www.w3.org/1999/xlink" preserveAspectRatio="xMidYMid meet" viewBox="0 0 1169 584.5" width="1169" height="584.5">
	<path d="M297.47 175.49C422.09 94.9 612.81 16.53 746.32 18.1C926.57 20.22 1061.9 87.78 1152.31 220.79C1167.22 242.72 1167.76 271.4 1153.68 293.88C1123.01 342.87 1091.76 383.95 1059.93 417.12C1020.72 457.99 979.82 480.07 937.22 506.42C846.74 562.41 702.99 578.14 648.78 579.97C582.89 582.19 448.96 572.62 295.97 530.36C210.71 506.8 117.79 473.01 17.2 428.99C4.61 423.47 2.05 406.73 12.42 397.71C125.67 299.23 220.68 225.16 297.47 175.49Z" id="f2n2GQgBn" class="cpVwWkEO_0"></path>
	<path d="M813.03 309.76C818.26 336.52 830.02 357.9 848.31 373.89C875.75 397.88 893.52 402.32 918.24 401.52C976.64 399.61 1017.08 353.14 1017.08 301.55C1017.08 249.96 981.19 204.28 922.44 198.44C895.81 195.79 861.92 210.29 842.47 230.44C829.5 243.87 819.69 264.09 813.03 291.09L813.03 527.22L778.03 536.84" id="d1UUQganhi" class="cpVwWkEO_1"></path>
	<path d="M590.8 299.97C659.33 299.97 702.16 299.97 719.3 299.97C723.33 299.97 726.32 296.24 725.45 292.3C719.95 267.57 709.59 247.6 694.37 232.41C668.87 206.95 639.26 198.44 625.15 198.14C591.01 197.42 521.15 221.8 519.15 302.05C518.34 334.69 537.77 367.45 569.46 386.34C589.71 398.42 616.79 403.61 650.7 401.91" id="c77H3M78oN" class="cpVwWkEO_2"></path>
	<path d="M427.57 169.36L427.57 313.7C412.93 372.97 379.57 402.37 327.47 401.9C275.38 401.43 241.78 372.03 226.67 313.7L226.67 257.27L270.07 227.14" id="cJ1XIFtte" class="cpVwWkEO_3"></path>
	<path d="M718.08 18.18C585.9 27.48 430.09 88.3 271.9 192.38C270.69 193.17 264.66 197.13 253.81 204.26C253.98 236.81 254.07 254.89 254.09 258.51C254.37 318.35 254.16 315.62 259 328.41C265.38 345.4 280.46 361.34 297 368.68C308.57 373.78 322.67 376.02 334.52 374.62C347.21 373.15 356.96 369.72 366.99 363.22C382.34 353.23 393.28 338.27 398.12 320.37C398.25 319.91 398.88 317.6 400.01 313.45L400.43 252.29L400.78 191.12C402.13 188.31 402.88 186.75 403.03 186.44C405.83 180.5 410.46 175.88 416.42 173.09C420.56 171.13 421.82 170.85 427.08 170.92C435.56 170.99 440.05 172.81 446.08 178.82C449.45 182.18 451.13 184.55 452.39 187.63C452.51 187.91 453.07 189.31 454.08 191.82C454.2 225.38 454.27 244.02 454.29 247.74C454.43 283.81 454.22 306.67 453.73 312.05C452.18 329.46 448.26 343.23 440.4 358.89C423.85 391.81 394.47 415.44 358.71 424.6C345.67 427.95 338.17 428.72 322.74 428.23C307.87 427.81 300.72 426.56 287.26 422.08C251.29 410.2 222.75 383.08 208.79 347.7C205.64 339.53 203.74 332.82 201.92 322.54C200.52 314.92 200.38 310.94 199.96 278.22C199.93 275.83 199.79 263.85 199.54 242.29C191.75 248.08 187.43 251.3 186.56 251.94C130.96 293.39 65.46 347.91 33.14 379.79C15.61 396.99 10.7 404.68 11.54 413.62C12.17 421.17 14.77 424.74 23.74 430.61C43.66 443.61 137.27 480.52 210.4 504.15C398.75 565.1 569.36 588.66 714.58 573.77C732.18 572.02 759.46 568.11 774.18 565.24C774.95 565.09 778.81 564.35 785.75 563.01C785.96 480.8 786.08 435.13 786.1 426C786.52 276.82 786.31 285.56 790.38 269.06C802.51 219.99 844.37 181.9 895.21 173.58C905.8 171.83 924.66 171.83 935.11 173.58C977.04 180.5 1012.17 206.5 1030.83 244.25C1048.5 280.11 1048.29 321.7 1030.33 357.42C1010.98 395.94 973.47 422.5 931.04 427.74C920.24 429.14 899.98 428.3 889.46 426.07C874.45 422.92 860.22 417.19 847.39 409.15C844.02 407.05 841.22 405.37 841.08 405.37C840.94 405.37 840.8 437.6 840.8 477.03C840.8 522.6 841.08 548.68 841.5 548.68C842.76 548.68 864.99 541.13 876.56 536.79C921.51 519.81 962.53 497.51 1000.32 469.41C1063.57 422.36 1114.83 359.66 1154.1 281.16C1163 263.4 1164.9 255.99 1163.42 244.04C1161.6 229.5 1157.96 223.49 1132.22 193.57C1060.42 109.97 975.64 55.23 880.41 31.05C852.37 23.92 824.88 19.65 793.11 17.41C784.07 16.79 738.91 16.65 731.76 17.13C730.21 17.27 724.04 17.76 718.08 18.18ZM700.2 199.86C720.68 216.08 736.03 238.59 743.61 263.61C747.25 275.71 748.52 283.95 748.52 296.33C748.59 306.67 748.52 307.37 746.69 311.15C742.84 319.32 734.98 325.41 726.15 327.01C720.68 328.06 620.97 328.06 615.64 327.08C607.29 325.48 600 320.02 595.86 312.12C593.76 308.14 593.62 307.44 593.62 300.52C593.62 293.6 593.76 292.83 595.86 288.57C598.6 282.98 603.65 278.08 609.26 275.5C609.52 275.37 610.85 274.74 613.25 273.61L651.33 273.26L689.4 272.91C687.68 269.43 686.72 267.49 686.53 267.11C676.85 247.95 658.97 233.69 637.65 228.38C628.54 226.07 611.64 226.14 602.8 228.45C575.95 235.44 555.89 254.94 548.67 281.09C546.43 289.2 545.65 302.41 546.99 311.08C551.26 340.23 573.07 364.55 601.61 371.89C604.56 372.66 611.71 373.71 617.53 374.2C626.79 375.04 628.54 375.39 632.25 377.27C637.23 379.79 643.26 385.87 645.16 390.35C648.17 397.41 648.17 405.72 645.16 412.71C643.26 417.19 636.88 423.62 632.04 426C628.4 427.81 627.07 428.09 619.77 428.3C594.18 429.14 565.22 419.43 542.43 402.37C534.58 396.43 521.6 383.15 515.99 375.32C500.57 353.58 492.71 330.72 491.8 304.37C491.03 282.21 495.38 262.91 505.62 242.43C529.18 195.6 581.35 167.01 633.1 172.67C657.92 175.32 681.06 184.76 700.2 199.86Z" id="a1FewyeQ0l" class="cpVwWkEO_4"></path>
	<path d="M854.45 258.55C833.06 290.64 840.7 334.82 871.63 358.03C895.82 376.2 928.5 378.09 954.23 362.71C971.62 352.36 983.4 336.57 988.66 316.43C990.06 311.05 990.27 308.53 990.27 298.96C990.2 289.24 989.99 286.86 988.38 280.99C979.47 247.65 949.88 224.93 915.73 225.28C912.02 225.28 906.55 225.77 903.53 226.33C883.62 229.89 865.67 241.71 854.45 258.55Z" id="c5ptOO6oKB" class="cpVwWkEO_5"></path>
	<g>
		<g>
			<g>
				<use xlink:href="#f2n2GQgBn" opacity="1" fill="#2C272B" fill-opacity="1"></use>
			</g>
			<g>
				<g>
					<use xlink:href="#d1UUQganhi" opacity="1" fill-opacity="0" stroke="#ffffff" stroke-width="57" stroke-opacity="1"></use>
				</g>
			</g>
			<g>
				<g>
					<use xlink:href="#c77H3M78oN" opacity="1" fill-opacity="0" stroke="#ffffff" stroke-width="56" stroke-opacity="1"></use>
				</g>
			</g>
			<g>
				<g>
					<use xlink:href="#cJ1XIFtte" opacity="1" fill-opacity="0" stroke="#ffffff" stroke-width="56" stroke-opacity="1"></use>
				</g>
			</g>
			<g>
				<use xlink:href="#a1FewyeQ0l" opacity="1" fill="#2C272B" fill-opacity="1"></use>
			</g>
			<g>
				<use xlink:href="#c5ptOO6oKB" opacity="1" fill="#2C272B" fill-opacity="1"></use>
				<g>
					<use xlink:href="#c5ptOO6oKB" opacity="1" fill-opacity="0" stroke="#2C272B" stroke-width="8" stroke-opacity="0"></use>
				</g>
			</g>
		</g>
	</g>

<style>
	.cpVwWkEO_0{
		stroke-dasharray:2694 2696;
		stroke-dashoffset:2695;

		-webkit-animation-name: cpVwWkEO_draw;
		-webkit-animation-duration: 2800ms;
		-webkit-animation-iteration-count: 0ms;
		-webkit-animation-timing-function: ease-in-out;
		-webkit-animation-fill-mode: forwards;

		-moz-animation-name: cpVwWkEO_draw;
		-moz-animation-duration: 2800ms;
		-moz-animation-iteration-count: 0ms;
		-moz-animation-timing-function: ease-in-out;
		-moz-animation-fill-mode: forwards;

		-o-animation-name: cpVwWkEO_draw;
		-o-animation-duration: 2800ms;
		-o-animation-iteration-count: 0ms;
		-o-animation-timing-function: ease-in-out;
		-o-animation-fill-mode: forwards;

		animation-name: cpVwWkEO_draw;
		animation-duration: 2800ms;
		animation-iteration-count: 0ms;
		animation-timing-function: ease-in-out;
		animation-fill-mode: forwards;
	}
	.cpVwWkEO_1{
		stroke-dasharray:892 894;
		stroke-dashoffset:893;
		
		-webkit-animation-name: cpVwWkEO_draw;
		-webkit-animation-duration: 2800ms;
		-webkit-animation-iteration-count: 40ms;
		-webkit-animation-timing-function: ease-in-out;
		-webkit-animation-fill-mode: forwards;

		-moz-animation-name: cpVwWkEO_draw;
		-moz-animation-duration: 2800ms;
		-moz-animation-iteration-count: 40ms;
		-moz-animation-timing-function: ease-in-out;
		-moz-animation-fill-mode: forwards;

		-o-animation-name: cpVwWkEO_draw;
		-o-animation-duration: 2800ms;
		-o-animation-iteration-count: 40ms;
		-o-animation-timing-function: ease-in-out;
		-o-animation-fill-mode: forwards;

		animation-name: cpVwWkEO_draw;
		animation-duration: 2800ms;
		animation-iteration-count: 40ms;
		animation-timing-function: ease-in-out;
		animation-fill-mode: forwards;
	}
	.cpVwWkEO_2{
		stroke-dasharray:639 641;
		stroke-dashoffset:640;

		-webkit-animation-name: cpVwWkEO_draw;
		-webkit-animation-duration: 2800ms;
		-webkit-animation-iteration-count: 80ms;
		-webkit-animation-timing-function: ease-in-out;
		-webkit-animation-fill-mode: forwards;

		-moz-animation-name: cpVwWkEO_draw;
		-moz-animation-duration: 2800ms;
		-moz-animation-iteration-count: 80ms;
		-moz-animation-timing-function: ease-in-out;
		-moz-animation-fill-mode: forwards;

		-o-animation-name: cpVwWkEO_draw;
		-o-animation-duration: 2800ms;
		-o-animation-iteration-count: 80ms;
		-o-animation-timing-function: ease-in-out;
		-o-animation-fill-mode: forwards;

		animation-name: cpVwWkEO_draw;
		animation-duration: 2800ms;
		animation-iteration-count: 80ms;
		animation-timing-function: ease-in-out;
		animation-fill-mode: forwards;
	}
	.cpVwWkEO_3{
		stroke-dasharray:546 548;
		stroke-dashoffset:547;

		-webkit-animation-name: cpVwWkEO_draw;
		-webkit-animation-duration: 2800ms;
		-webkit-animation-iteration-count: 120ms;
		-webkit-animation-timing-function: ease-in-out;
		-webkit-animation-fill-mode: forwards;

		-moz-animation-name: cpVwWkEO_draw;
		-moz-animation-duration: 2800ms;
		-moz-animation-iteration-count: 120ms;
		-moz-animation-timing-function: ease-in-out;
		-moz-animation-fill-mode: forwards;

		-o-animation-name: cpVwWkEO_draw;
		-o-animation-duration: 2800ms;
		-o-animation-iteration-count: 120ms;
		-o-animation-timing-function: ease-in-out;
		-o-animation-fill-mode: forwards;

		animation-name: cpVwWkEO_draw;
		animation-duration: 2800ms;
		animation-iteration-count: 120ms;
		animation-timing-function: ease-in-out;
		animation-fill-mode: forwards;
	}
	.cpVwWkEO_4{
		stroke-dasharray:6040 6042;
		stroke-dashoffset:6041;

		-webkit-animation-name: cpVwWkEO_draw;
		-webkit-animation-duration: 2800ms;
		-webkit-animation-iteration-count: 160ms;
		-webkit-animation-timing-function: ease-in-out;
		-webkit-animation-fill-mode: forwards;

		-moz-animation-name: cpVwWkEO_draw;
		-moz-animation-duration: 2800ms;
		-moz-animation-iteration-count: 160ms;
		-moz-animation-timing-function: ease-in-out;
		-moz-animation-fill-mode: forwards;

		-o-animation-name: cpVwWkEO_draw;
		-o-animation-duration: 2800ms;
		-o-animation-iteration-count: 160ms;
		-o-animation-timing-function: ease-in-out;
		-o-animation-fill-mode: forwards;

		animation-name: cpVwWkEO_draw;
		animation-duration: 2800ms;
		animation-iteration-count: 160ms;
		animation-timing-function: ease-in-out;
		animation-fill-mode: forwards;
	}
	.cpVwWkEO_5{
		stroke-dasharray:466 468;
		stroke-dashoffset:467;

		-webkit-animation-name: cpVwWkEO_draw;
		-webkit-animation-duration: 2800ms;
		-webkit-animation-iteration-count: 200ms;
		-webkit-animation-timing-function: ease-in-out;
		-webkit-animation-fill-mode: forwards;

		-moz-animation-name: cpVwWkEO_draw;
		-moz-animation-duration: 2800ms;
		-moz-animation-iteration-count: 200ms;
		-moz-animation-timing-function: ease-in-out;
		-moz-animation-fill-mode: forwards;

		-o-animation-name: cpVwWkEO_draw;
		-o-animation-duration: 2800ms;
		-o-animation-iteration-count: 200ms;
		-o-animation-timing-function: ease-in-out;
		-o-animation-fill-mode: forwards;

		animation-name: cpVwWkEO_draw;
		animation-duration: 2800ms;
		animation-iteration-count: 200ms;
		animation-timing-function: ease-in-out;
		animation-fill-mode: forwards;
	}

	@-webkit-keyframes cpVwWkEO_draw{
		100%{
			stroke-dashoffset:0;
		}
	}

	@-moz-keyframes cpVwWkEO_draw{
		100%{
			stroke-dashoffset:0;
		}
	}

	@-o-keyframes cpVwWkEO_draw{
		100%{
			stroke-dashoffset:0;
		}
	}

	@keyframes cpVwWkEO_draw{
		100%{
			stroke-dashoffset:0;
		}
	}

	@-webkit-keyframes cpVwWkEO_fade{
		0%{
			stroke-opacity:1;
		}
		94.44444444444444%{
			stroke-opacity:1;
		}
		100%{
			stroke-opacity:0;
		}
	}
	@-moz-keyframes cpVwWkEO_fade{
		0%{
			stroke-opacity:1;
		}
		94.44444444444444%{
			stroke-opacity:1;
		}
		100%{
			stroke-opacity:0;
		}
	}
	@-o-keyframes cpVwWkEO_fade{
		0%{
			stroke-opacity:1;
		}
		94.44444444444444%{
			stroke-opacity:1;
		}
		100%{
			stroke-opacity:0;
		}
	}
	@keyframes cpVwWkEO_fade{
		0%{
			stroke-opacity:1;
		}
		94.44444444444444%{
			stroke-opacity:1;
		}
		100%{
			stroke-opacity:0;
		}
	}
</style>
</svg>