<svg xmlns="http://www.w3.org/2000/svg" xmlns:xlink="http://www.w3.org/1999/xlink" width="1670" height="840">
    <defs>
        <path d="M430.34 244.23C608.17 129.22 882.48 19.53 1073 21.77c166.53 1.95 296.62 51.08 405.19 127.5 58.63 41.27 110.28 92.31 154.94 153.11 22.68 30.87 26.39 71.77 9.66 106.23-36.15 74.44-76.9 135.3-122.25 182.58-55.96 58.32-114.32 93.39-175.11 131-129.12 79.89-334.27 98.78-411.62 101.38-94.03 3.18-285.15-10.48-503.47-70.8-121.67-33.61-254.28-81.83-397.83-144.66-18.04-7.89-21.8-31.85-7.05-44.89C185.81 421.43 320.77 315.1 430.34 244.23z" id="d1RLpWbQqz" style="animation:NeOdaCHe_draw 2000ms ease-in-out 0ms forwards" stroke-dasharray="3823 3825" stroke-dashoffset="3824"/>
        <path d="M1161.48 440.2c7.46 38.23 24.26 68.77 50.4 91.61 39.2 34.27 64.58 40.61 99.9 39.46 83.43-2.72 141.2-69.11 141.2-142.81 0-73.69-51.27-138.95-135.2-147.3-38.05-3.78-86.47 16.93-114.26 45.72-18.52 19.19-32.54 48.06-42.04 86.63v337.34l-50 13.74" id="a8KwoRnsrq" style="animation:NeOdaCHe_draw 2000ms ease-in-out 200ms forwards" stroke-dasharray="1274 1276" stroke-dashoffset="1275"/>
        <path d="M844 426.21h183.57c5.75 0 10.03-5.34 8.78-10.96-7.85-35.33-22.65-63.85-44.4-85.56-36.43-36.37-78.72-48.52-98.88-48.95-48.77-1.04-148.57 33.8-151.43 148.44-1.16 46.63 26.61 93.43 71.87 120.41 28.94 17.25 67.62 24.67 116.06 22.24" id="c2UJqMLY3c" style="animation:NeOdaCHe_draw 2000ms ease-in-out 400ms forwards" stroke-dasharray="913 915" stroke-dashoffset="914"/>
        <path d="M610.82 239.62v206.2c-20.91 84.67-68.58 126.67-143 126-74.42-.66-122.42-42.66-144-126V365.2l62-43.03" id="d2vpH7r1lW" style="animation:NeOdaCHe_draw 2000ms ease-in-out 600ms forwards" stroke-dasharray="780 782" stroke-dashoffset="781"/>
        <path d="M1025.83 23.65c-188.82 13.28-411.41 100.16-637.4 248.86l-25.84 16.97c.24 46.5.37 72.33.4 77.5.4 85.48.1 81.58 7.01 99.86 9.11 24.26 30.65 47.03 54.29 57.52 16.53 7.29 36.67 10.48 53.59 8.49 18.14-2.1 32.06-6.99 46.39-16.28 21.93-14.28 37.56-35.65 44.47-61.22.18-.66 1.08-3.95 2.71-9.88l.6-87.38.5-87.38c1.92-4.02 2.99-6.25 3.2-6.69 4.01-8.49 10.62-15.08 19.14-19.08 5.91-2.79 7.71-3.19 15.22-3.09 12.12.1 18.54 2.7 27.15 11.28 4.81 4.8 7.21 8.19 9.02 12.59.16.4.96 2.39 2.4 5.99l.3 79.89c.2 51.53-.1 84.18-.8 91.87-2.2 24.87-7.81 44.54-19.03 66.91-23.64 47.03-65.62 80.79-116.71 93.87-18.63 4.79-29.35 5.89-51.38 5.19-21.24-.6-31.46-2.4-50.69-8.79-51.39-16.97-92.16-55.72-112.1-106.25-4.5-11.68-7.21-21.27-9.81-35.95-2.01-10.89-2.21-16.58-2.81-63.31l-.6-51.33c-11.12 8.27-17.3 12.86-18.53 13.78-79.44 59.22-173 137.11-219.18 182.65-25.04 24.56-32.06 35.55-30.85 48.33.9 10.78 4.6 15.88 17.43 24.27 28.45 18.57 162.18 71.3 266.66 105.05 269.06 87.08 512.79 120.73 720.24 99.46 25.15-2.49 64.12-8.09 85.15-12.18 1.1-.21 6.61-1.28 16.53-3.2.3-117.43.47-182.68.5-195.73.6-213.1.3-200.62 6.11-224.19 17.33-70.1 77.14-124.52 149.76-136.41 15.13-2.49 42.07-2.49 57 0 59.9 9.89 110.09 47.04 136.74 100.96 25.24 51.23 24.94 110.65-.7 161.68-27.65 55.02-81.24 92.97-141.85 100.46-15.43 2-44.38.8-59.4-2.4-21.44-4.49-41.77-12.68-60.11-24.16-4.8-3-8.81-5.4-9.01-5.4-.2 0-.4 46.04-.4 102.36 0 65.11.4 102.36 1 102.36 1.8 0 33.56-10.78 50.09-16.98 64.21-24.26 122.81-56.12 176.8-96.26 90.36-67.21 163.59-156.78 219.68-268.93 12.72-25.36 15.43-35.95 13.33-53.03-2.61-20.77-7.82-29.35-44.58-72.1-102.58-119.43-223.69-197.62-359.72-232.17-40.07-10.19-79.34-16.28-124.72-19.48-12.92-.9-77.43-1.1-87.65-.4-2.21.2-11.02.9-19.54 1.5zm-25.54 259.54c29.25 23.17 51.19 55.33 62.01 91.08 5.21 17.27 7.01 29.06 7.01 46.73.1 14.78 0 15.78-2.61 21.17-5.51 11.69-16.72 20.37-29.35 22.67-7.81 1.5-150.26 1.5-157.87.1-11.92-2.3-22.34-10.09-28.25-21.37-3-5.69-3.2-6.69-3.2-16.58 0-9.88.2-10.98 3.2-17.07 3.91-7.99 11.12-14.98 19.13-18.68.39-.18 2.29-1.08 5.71-2.69l54.4-.5 54.39-.5c-2.46-4.98-3.83-7.74-4.1-8.29-13.83-27.36-39.37-47.74-69.83-55.32-13.02-3.3-37.16-3.2-49.78.1-38.37 9.98-67.02 37.84-77.34 75.19-3.2 11.58-4.3 30.46-2.4 42.84 6.11 41.64 37.26 76.4 78.04 86.88 4.2 1.1 14.42 2.6 22.73 3.3 13.23 1.2 15.73 1.69 21.04 4.39 7.11 3.6 15.73 12.28 18.43 18.67 4.31 10.09 4.31 21.97 0 31.96-2.7 6.39-11.82 15.58-18.73 18.97-5.21 2.6-7.11 3-17.53 3.3-36.56 1.2-77.93-12.68-110.49-37.05-11.22-8.49-29.75-27.46-37.77-38.65-22.03-31.05-33.25-63.71-34.56-101.36-1.1-31.65 5.11-59.21 19.74-88.47 33.66-66.91 108.19-107.75 182.11-99.66 35.46 3.79 68.52 17.27 95.87 38.84z" id="d1AYCyJlFr" style="animation:NeOdaCHe_draw 2000ms ease-in-out 800ms forwards" stroke-dasharray="8628 8630" stroke-dashoffset="8629"/>
        <path d="M1221.35 368.47c-30.55 45.84-19.63 108.95 24.55 142.1 34.56 25.97 81.24 28.66 118 6.69 24.84-14.78 41.67-37.35 49.19-66.11 2-7.69 2.3-11.28 2.3-24.96-.1-13.88-.4-17.28-2.71-25.67-12.72-47.63-54.99-80.08-103.78-79.59-5.3 0-13.12.7-17.43 1.5-28.44 5.1-54.09 21.97-70.12 46.04z" id="h1IzGoa" style="animation:NeOdaCHe_draw 2000ms ease-in-out 1000ms forwards" stroke-dasharray="665 667" stroke-dashoffset="666"/>
    </defs>
    <use xlink:href="#d1RLpWbQqz"/>
    <use xlink:href="#a8KwoRnsrq" fill-opacity="0" stroke="#fff" stroke-width="80"/>
    <use xlink:href="#c2UJqMLY3c" fill-opacity="0" stroke="#fff" stroke-width="80"/>
    <use xlink:href="#d2vpH7r1lW" fill-opacity="0" stroke="#fff" stroke-width="80"/>
    <use xlink:href="#d1AYCyJlFr"/>
    <use xlink:href="#d1AYCyJlFr" fill-opacity="0" stroke="#000" stroke-opacity="0"/>
    <g>
        <use xlink:href="#h1IzGoa"/>
        <use xlink:href="#h1IzGoa" fill-opacity="0" stroke="#000" stroke-opacity="0"/>
    </g>
    <style data-made-with="vivus-instant">@keyframes NeOdaCHe_draw{to{stroke-dashoffset:0}}@keyframes NeOdaCHe_fade{0%,87.65432098765432%{stroke-opacity:1}to{stroke-opacity:0}}</style>
</svg>