<!--?xml version="1.0" encoding="UTF-8" standalone="no"?-->

<svg version="1.1" xmlns="http://www.w3.org/2000/svg" xmlns:xlink="http://www.w3.org/1999/xlink" preserveAspectRatio="xMidYMid meet" viewBox="0 0 1670 840" width="1670" height="840" style=""><defs><path d="M430.34 244.23C608.17 129.22 882.48 19.53 1073 21.77C1239.53 23.72 1369.62 72.85 1478.19 149.27C1536.82 190.54 1588.47 241.58 1633.13 302.38C1655.81 333.25 1659.52 374.15 1642.79 408.61C1606.64 483.05 1565.89 543.91 1520.54 591.19C1464.58 649.51 1406.22 684.58 1345.43 722.19C1216.31 802.08 1011.16 820.97 933.81 823.57C839.78 826.75 648.66 813.09 430.34 752.77C308.67 719.16 176.06 670.94 32.51 608.11C14.47 600.22 10.71 576.26 25.46 563.22C185.81 421.43 320.77 315.1 430.34 244.23Z" id="d1RLpWbQqz" class="NeOdaCHe_0"></path><path d="M1161.48 440.2C1168.94 478.43 1185.74 508.97 1211.88 531.81C1251.08 566.08 1276.46 572.42 1311.78 571.27C1395.21 568.55 1452.98 502.16 1452.98 428.46C1452.98 354.77 1401.71 289.51 1317.78 281.16C1279.73 277.38 1231.31 298.09 1203.52 326.88C1185 346.07 1170.98 374.94 1161.48 413.51L1161.48 750.85L1111.48 764.59" id="a8KwoRnsrq" class="NeOdaCHe_1"></path><path d="M844 426.21C941.9 426.21 1003.09 426.21 1027.57 426.21C1033.32 426.21 1037.6 420.87 1036.35 415.25C1028.5 379.92 1013.7 351.4 991.95 329.69C955.52 293.32 913.23 281.17 893.07 280.74C844.3 279.7 744.5 314.54 741.64 429.18C740.48 475.81 768.25 522.61 813.51 549.59C842.45 566.84 881.13 574.26 929.57 571.83" id="c2UJqMLY3c" class="NeOdaCHe_2"></path><path d="M610.82 239.62L610.82 445.82C589.91 530.49 542.24 572.49 467.82 571.82C393.4 571.16 345.4 529.16 323.82 445.82L323.82 365.2L385.82 322.17" id="d2vpH7r1lW" class="NeOdaCHe_3"></path><path d="M1025.83 23.65C837.01 36.93 614.42 123.81 388.43 272.51C386.71 273.64 378.09 279.3 362.59 289.48C362.83 335.98 362.96 361.81 362.99 366.98C363.39 452.46 363.09 448.56 370 466.84C379.11 491.1 400.65 513.87 424.29 524.36C440.82 531.65 460.96 534.84 477.88 532.85C496.02 530.75 509.94 525.86 524.27 516.57C546.2 502.29 561.83 480.92 568.74 455.35C568.92 454.69 569.82 451.4 571.45 445.47L572.05 358.09L572.55 270.71C574.47 266.69 575.54 264.46 575.75 264.02C579.76 255.53 586.37 248.94 594.89 244.94C600.8 242.15 602.6 241.75 610.11 241.85C622.23 241.95 628.65 244.55 637.26 253.13C642.07 257.93 644.47 261.32 646.28 265.72C646.44 266.12 647.24 268.11 648.68 271.71C648.86 319.64 648.96 346.27 648.98 351.6C649.18 403.13 648.88 435.78 648.18 443.47C645.98 468.34 640.37 488.01 629.15 510.38C605.51 557.41 563.53 591.17 512.44 604.25C493.81 609.04 483.09 610.14 461.06 609.44C439.82 608.84 429.6 607.04 410.37 600.65C358.98 583.68 318.21 544.93 298.27 494.4C293.77 482.72 291.06 473.13 288.46 458.45C286.45 447.56 286.25 441.87 285.65 395.14C285.61 391.71 285.41 374.61 285.05 343.81C273.93 352.08 267.75 356.67 266.52 357.59C187.08 416.81 93.52 494.7 47.34 540.24C22.3 564.8 15.28 575.79 16.49 588.57C17.39 599.35 21.09 604.45 33.92 612.84C62.37 631.41 196.1 684.14 300.58 717.89C569.64 804.97 813.37 838.62 1020.82 817.35C1045.97 814.86 1084.94 809.26 1105.97 805.17C1107.07 804.96 1112.58 803.89 1122.5 801.97C1122.8 684.54 1122.97 619.29 1123 606.24C1123.6 393.14 1123.3 405.62 1129.11 382.05C1146.44 311.95 1206.25 257.53 1278.87 245.64C1294 243.15 1320.94 243.15 1335.87 245.64C1395.77 255.53 1445.96 292.68 1472.61 346.6C1497.85 397.83 1497.55 457.25 1471.91 508.28C1444.26 563.3 1390.67 601.25 1330.06 608.74C1314.63 610.74 1285.68 609.54 1270.66 606.34C1249.22 601.85 1228.89 593.66 1210.55 582.18C1205.75 579.18 1201.74 576.78 1201.54 576.78C1201.34 576.78 1201.14 622.82 1201.14 679.14C1201.14 744.25 1201.54 781.5 1202.14 781.5C1203.94 781.5 1235.7 770.72 1252.23 764.52C1316.44 740.26 1375.04 708.4 1429.03 668.26C1519.39 601.05 1592.62 511.48 1648.71 399.33C1661.43 373.97 1664.14 363.38 1662.04 346.3C1659.43 325.53 1654.22 316.95 1617.46 274.2C1514.88 154.77 1393.77 76.58 1257.74 42.03C1217.67 31.84 1178.4 25.75 1133.02 22.55C1120.1 21.65 1055.59 21.45 1045.37 22.15C1043.16 22.35 1034.35 23.05 1025.83 23.65ZM1000.29 283.19C1029.54 306.36 1051.48 338.52 1062.3 374.27C1067.51 391.54 1069.31 403.33 1069.31 421C1069.41 435.78 1069.31 436.78 1066.7 442.17C1061.19 453.86 1049.98 462.54 1037.35 464.84C1029.54 466.34 887.09 466.34 879.48 464.94C867.56 462.64 857.14 454.85 851.23 443.57C848.23 437.88 848.03 436.88 848.03 426.99C848.03 417.11 848.23 416.01 851.23 409.92C855.14 401.93 862.35 394.94 870.36 391.24C870.75 391.06 872.65 390.16 876.07 388.55L930.47 388.05L984.86 387.55C982.4 382.57 981.03 379.81 980.76 379.26C966.93 351.9 941.39 331.52 910.93 323.94C897.91 320.64 873.77 320.74 861.15 324.04C822.78 334.02 794.13 361.88 783.81 399.23C780.61 410.81 779.51 429.69 781.41 442.07C787.52 483.71 818.67 518.47 859.45 528.95C863.65 530.05 873.87 531.55 882.18 532.25C895.41 533.45 897.91 533.94 903.22 536.64C910.33 540.24 918.95 548.92 921.65 555.31C925.96 565.4 925.96 577.28 921.65 587.27C918.95 593.66 909.83 602.85 902.92 606.24C897.71 608.84 895.81 609.24 885.39 609.54C848.83 610.74 807.46 596.86 774.9 572.49C763.68 564 745.15 545.03 737.13 533.84C715.1 502.79 703.88 470.13 702.57 432.48C701.47 400.83 707.68 373.27 722.31 344.01C755.97 277.1 830.5 236.26 904.42 244.35C939.88 248.14 972.94 261.62 1000.29 283.19Z" id="d1AYCyJlFr" class="NeOdaCHe_4"></path><path d="M1221.35 368.47C1190.8 414.31 1201.72 477.42 1245.9 510.57C1280.46 536.54 1327.14 539.23 1363.9 517.26C1388.74 502.48 1405.57 479.91 1413.09 451.15C1415.09 443.46 1415.39 439.87 1415.39 426.19C1415.29 412.31 1414.99 408.91 1412.68 400.52C1399.96 352.89 1357.69 320.44 1308.9 320.93C1303.6 320.93 1295.78 321.63 1291.47 322.43C1263.03 327.53 1237.38 344.4 1221.35 368.47Z" id="h1IzGoa" class="NeOdaCHe_5"></path></defs><g><g><g><use xlink:href="#d1RLpWbQqz" opacity="1" fill="#000000" fill-opacity="1"></use></g><g><g><use xlink:href="#a8KwoRnsrq" opacity="1" fill-opacity="0" stroke="#ffffff" stroke-width="80" stroke-opacity="1"></use></g></g><g><g><use xlink:href="#c2UJqMLY3c" opacity="1" fill-opacity="0" stroke="#ffffff" stroke-width="80" stroke-opacity="1"></use></g></g><g><g><use xlink:href="#d2vpH7r1lW" opacity="1" fill-opacity="0" stroke="#ffffff" stroke-width="80" stroke-opacity="1"></use></g></g><g><use xlink:href="#d1AYCyJlFr" opacity="1" fill="#000000" fill-opacity="1"></use><g><use xlink:href="#d1AYCyJlFr" opacity="1" fill-opacity="0" stroke="#000000" stroke-width="1" stroke-opacity="0"></use></g></g><g><use xlink:href="#h1IzGoa" opacity="1" fill="#000000" fill-opacity="1"></use><g><use xlink:href="#h1IzGoa" opacity="1" fill-opacity="0" stroke="#000000" stroke-width="1" stroke-opacity="0"></use></g></g></g></g><style data-made-with="vivus-instant">.NeOdaCHe_0{stroke-dasharray:3823 3825;stroke-dashoffset:3824;animation:NeOdaCHe_draw 2000ms ease-in-out 0ms forwards;}.NeOdaCHe_1{stroke-dasharray:1274 1276;stroke-dashoffset:1275;animation:NeOdaCHe_draw 2000ms ease-in-out 200ms forwards;}.NeOdaCHe_2{stroke-dasharray:913 915;stroke-dashoffset:914;animation:NeOdaCHe_draw 2000ms ease-in-out 400ms forwards;}.NeOdaCHe_3{stroke-dasharray:780 782;stroke-dashoffset:781;animation:NeOdaCHe_draw 2000ms ease-in-out 600ms forwards;}.NeOdaCHe_4{stroke-dasharray:8628 8630;stroke-dashoffset:8629;animation:NeOdaCHe_draw 2000ms ease-in-out 800ms forwards;}.NeOdaCHe_5{stroke-dasharray:665 667;stroke-dashoffset:666;animation:NeOdaCHe_draw 2000ms ease-in-out 1000ms forwards;}@keyframes NeOdaCHe_draw{100%{stroke-dashoffset:0;}}@keyframes NeOdaCHe_fade{0%{stroke-opacity:1;}87.65432098765432%{stroke-opacity:1;}100%{stroke-opacity:0;}}</style></svg>